<?xml version="1.0" encoding="utf-8"?>
<svg viewBox="284.6995849609375 107.800048828125 102.60009765625 60.299957275390625" width="102.60009765625" height="60.299957275390625" xmlns="http://www.w3.org/2000/svg"><path class="st4" d="M327,141.2l0-3.2c0-0.5,0-1-0.1-1c-0.1,0-0.1-0.1-0.1-0.2c0-0.1-0.2-0.2-0.5-0.2l-0.7,0c-0.3,0-0.4,0-0.4,0.2&#10;&#9;&#9;c0,0.1-0.1,0.3-0.1,0.3c-0.1,0-0.1,0.4-0.1,0.9l0,3c0,0.5-0.1,1-0.2,1c0,0-0.1-0.4-0.1-1l0-7.5c0-0.5-0.2-1-0.3-1&#10;&#9;&#9;c-0.2,0-0.2-0.4-0.2-0.9v-0.2c0-0.5-0.2-0.9-0.5-0.9h-1.4c-0.3,0-0.7,0.3-0.9,0.7l-0.7,1.3c-0.2,0.4-0.4,1.1-0.4,1.6v7.2&#10;&#9;&#9;c0,0.5-0.2,0.9-0.5,0.9h0c-0.3,0-0.6-0.2-0.7-0.4c-0.1-0.2-0.2-0.8-0.2-1.3v-12c0-0.5-0.1-1-0.2-1c-0.1,0-0.3-0.4-0.4-0.9l-0.1-0.3&#10;&#9;&#9;c-0.1-0.5-0.5-0.9-0.7-0.9l-1.6,0c-0.3,0-0.6,0.4-0.8,0.8l-0.1,0.2c-0.1,0.5-0.3,0.8-0.4,0.8c-0.1,0-0.2,0.4-0.2,0.9v11.6&#10;&#9;&#9;c0,0.5-0.1,0.9-0.3,0.9c-0.2,0-0.3,0.4-0.3,1v2.2c0,0.5-0.1,0.9-0.2,0.9c-0.1,0-0.2,0.4-0.2,0.9v8.1c0,0.5-0.2,0.9-0.5,0.9h-0.1&#10;&#9;&#9;c-0.3,0-0.5-0.4-0.5-0.9v-2.7c0-0.5-0.1-1-0.3-1c-0.1,0-0.3-0.4-0.3-0.9v-1.4c0-0.5-0.2-0.9-0.5-0.9h-0.3c-0.3,0-0.5-0.4-0.5-0.9&#10;&#9;&#9;v-3.7c0-0.5-0.1-0.9-0.2-0.9c-0.1,0-0.2-0.1-0.2-0.3c0-0.2-0.2-0.6-0.4-1l-0.3-0.5c-0.2-0.4-0.4-1-0.4-1.3c0-0.3-0.2-0.6-0.5-0.6&#10;&#9;&#9;h-1.2c-0.3,0-0.5,0.3-0.5,0.6c0,0.4-0.2,0.9-0.4,1.3l-0.1,0.2c-0.2,0.4-0.4,0.9-0.4,1.1c0,0.2-0.1,0.4-0.3,0.4&#10;&#9;&#9;c-0.2,0-0.3,0.4-0.3,0.9v17.5c0,0.5,0,0.9-0.1,0.9c-0.1,0-0.1,0.2-0.1,0.5c0,0.3,0,0.5-0.1,0.5c-0.1,0-0.1-0.4-0.1-0.9v-7.4&#10;&#9;&#9;c0-0.5-0.1-1.1-0.2-1.3c-0.1-0.2-0.3-0.8-0.4-1.3l-0.1-0.6c-0.1-0.5-0.4-0.9-0.7-0.9h-0.3c-0.3,0-0.6,0.4-0.8,0.8l-0.2,0.5&#10;&#9;&#9;c-0.2,0.4-0.4,0.8-0.5,0.8c-0.1,0-0.4,0-0.7,0c-0.3,0-0.5-0.2-0.5-0.5c0-0.3,0-0.5-0.1-0.5c-0.1,0-0.1,0.2-0.1,0.5&#10;&#9;&#9;c0,0.3-0.2,0.5-0.4,0.5c-0.2,0-0.4,0.4-0.4,1v3.8c0,0.5-0.1,0.9-0.2,0.9c-0.1,0-0.2-0.4-0.2-0.9v-6.6c0-0.5-0.1-0.9-0.3-0.9&#10;&#9;&#9;c-0.2,0-0.3-0.1-0.3-0.3c0-0.1-0.1-0.3-0.1-0.3c-0.1,0-0.1,0.1-0.1,0.3c0,0.1-0.1,0.3-0.2,0.3c-0.1,0-0.2,0-0.2-0.1&#10;&#9;&#9;c0-0.1-0.2-0.1-0.4-0.1c-0.2,0-0.4,0-0.4,0.1c0,0.1-0.1,0.1-0.1,0.1c-0.1,0-0.1-0.1-0.1-0.3c0-0.2,0-0.3,0-0.3c0,0,0,0.1,0,0.3&#10;&#9;&#9;c0,0.2-0.1,0.3-0.2,0.3c-0.1,0-0.2,0.4-0.2,0.9v2.5c0,0.5-0.2,0.9-0.3,0.9c-0.2,0-0.3-0.4-0.3-0.9c0-0.5-0.1-0.9-0.2-0.9&#10;&#9;&#9;c-0.1,0-0.2-0.2-0.2-0.4c0-0.2-0.1-0.4-0.3-0.4c-0.2,0-0.3,0.2-0.3,0.4c0,0.2-0.2,0.4-0.5,0.4h-0.1c-0.3,0-0.5,0.4-0.5,0.9&#10;&#9;&#9;c0,0.5-0.1,0.9-0.1,0.9c-0.1,0-0.1-0.3-0.1-0.7c0-0.4-0.1-0.7-0.2-0.7c-0.1,0-0.2,0.3-0.2,0.7c0,0.4-0.1,0.7-0.2,0.7&#10;&#9;&#9;c-0.1,0-0.2,0.4-0.2,0.9v2.5c0,0.5-0.2,1-0.3,1c-0.2,0-0.3,0.4-0.3,0.8c0,0.5-0.1,0.8-0.3,0.8c-0.2,0-0.3-0.4-0.3-0.9v-7.1&#10;&#9;&#9;c0-0.5-0.1-0.9-0.2-0.9c-0.1,0-0.2-0.2-0.2-0.4c0-0.2-0.1-0.4-0.2-0.4c-0.1,0-0.2,0.2-0.2,0.4c0,0.2-0.1,0.4-0.3,0.4&#10;&#9;&#9;c-0.1,0-0.3-0.3-0.3-0.6c0-0.4,0-0.6-0.1-0.6c0,0-0.1,0.3-0.1,0.6c0,0.4-0.1,0.6-0.2,0.6c-0.1,0-0.2-0.1-0.2-0.2&#10;&#9;&#9;c0-0.1-0.1-0.2-0.2-0.2c-0.1,0-0.2,0.1-0.2,0.2c0,0.1-0.1,0.2-0.2,0.2c-0.1,0-0.2-0.2-0.2-0.5c0-0.2-0.1-0.5-0.2-0.5&#10;&#9;&#9;s-0.2-0.2-0.2-0.4c0-0.2-0.1-0.4-0.2-0.4c-0.1,0-0.2,0.2-0.2,0.4c0,0.2,0,0.4-0.1,0.4c0,0-0.1,0.2-0.1,0.5c0,0.2-0.2,0.5-0.4,0.5&#10;&#9;&#9;c-0.2,0-0.4,0.4-0.4,0.9v4.7c0,0.5-0.1,0.9-0.2,0.9c-0.1,0-0.2-0.2-0.2-0.3c0-0.2-0.1-0.3-0.1-0.3c-0.1,0-0.1,0.2-0.1,0.3&#10;&#9;&#9;c0,0.2-0.1,0.3-0.2,0.3c-0.1,0-0.2,0.2-0.2,0.4c0,0.2-0.2,0.4-0.5,0.4c-0.2,0-0.7,2.2-0.6,3.7c0.2,2.3-0.1,4.8,0.1,7.1l7.4,0.1&#10;&#9;&#9;c0.3,0,0.7,0,1,0l9.6,0c0.3,0,0.7,0,1,0l25.7,0c0.3,0,0.7,0,1,0l23.2,0c0.3,0,0.7,0,1,0l32.1,0c0.4-2.4-0.1-4.4,0-6.5&#10;&#9;&#9;c0.1-2.8-0.1-5.6-0.1-8.4c0-0.1-0.1-0.1-0.1-0.2c0-0.2-0.2-0.4-0.5-0.4h-0.2c-0.3,0-0.5-0.4-0.5-0.9v-1.7c0-0.5-0.2-0.9-0.5-0.9&#10;&#9;&#9;h-0.3c-0.3,0-0.5-0.2-0.5-0.5c0-0.3-0.2-0.5-0.4-0.5c-0.2,0-0.4,0.2-0.4,0.5c0,0.3-0.2,0.5-0.4,0.5c-0.2,0-0.4-0.4-0.4-0.9v-0.1&#10;&#9;&#9;c0-0.5-0.1-1-0.2-1c-0.1,0-0.2,0.4-0.2,1v0.1c0,0.5-0.2,0.9-0.4,0.9c-0.2,0-0.5,0.4-0.5,0.9l-0.3,2.4c-0.1,0.5-0.3,0.9-0.6,0.9&#10;&#9;&#9;h-0.5c-0.3,0-0.7-0.1-0.9-0.2c0,0,0,0,0-1.5c0-5.5-0.6-9.9-1.3-9.9c-0.7,0-1.3,4.4-1.3,9.9c0,0.3,0,0.3,0,0.3&#10;&#9;&#9;c0,0.3-0.1,0.6-0.2,0.6c-0.1,0-0.2,0.3-0.2,0.7c0,0.4-0.2,0.7-0.4,0.7c-0.2,0-0.4,0.4-0.4,0.8c0,0.5-0.2,0.8-0.5,0.8h-0.2&#10;&#9;&#9;c-0.3,0-0.5-0.4-0.5-0.9v-0.6c0-0.5-0.2-0.9-0.3-0.9c-0.2,0-0.3-0.4-0.3-1v-3.8c0-0.5-0.1-0.9-0.1-0.9c-0.1,0-0.1-0.3-0.1-0.7&#10;&#9;&#9;c0-0.4-0.2-0.7-0.4-0.7c-0.2,0-0.4,0.3-0.4,0.7c0,0.4-0.1,0.7-0.3,0.7c-0.2,0-0.3,0.4-0.3,0.9v0c0,0.5-0.2,0.9-0.5,0.9h-1.3&#10;&#9;&#9;c-0.3,0-0.5-0.4-0.5-0.9v-0.1c0-0.5-0.1-1-0.3-1s-0.3,0.4-0.3,1v0.1c0,0.5-0.1,0.9-0.3,0.9c-0.2,0-0.3-0.4-0.3-0.9v-4.9&#10;&#9;&#9;c0-0.5-0.2-1.2-0.4-1.6l-0.6-1.1c-0.2-0.4-0.5-0.7-0.7-0.7c-0.2,0-0.4-0.1-0.4-0.2c0-0.1-0.1-0.2-0.3-0.2c-0.2,0-0.3-0.4-0.3-0.9&#10;&#9;&#9;l-0.1-2.8c0-0.5-0.1-0.5-0.1,0l-0.1,2.8c0,0.5-0.2,0.9-0.3,0.9c-0.2,0-0.3,0.1-0.3,0.2c0,0.1-0.2,0.2-0.4,0.2&#10;&#9;&#9;c-0.2,0-0.4-0.4-0.4-0.9v-7.4c0-0.5-0.2-1-0.5-1h-2.2c-0.3,0-0.5,0.4-0.5,1v14.8c0,0.5-0.2,0.9-0.5,0.9h-0.7&#10;&#9;&#9;c-0.3,0-0.5-0.4-0.5-0.9v-24c0-0.5-0.2-1.2-0.4-1.5l-1.1-1.4c-0.2-0.3-0.4-1-0.5-1.5l-0.5-9.8c0-0.5-0.1-0.5-0.1,0l-0.4,9.7&#10;&#9;&#9;c0,0.5-0.2,1.2-0.5,1.5l-1.2,1.5c-0.2,0.3-0.4,1-0.4,1.5v27.1c0,0.5-0.2,0.9-0.5,0.9H352c-0.3,0-0.5-0.4-0.5-0.9v-0.4&#10;&#9;&#9;c0-0.5,0.1-0.8,0.1-0.7c0.1,0.1,0.1,0,0.1-0.2c0-0.2-0.1-0.5-0.1-0.7c-0.1-0.1-0.1-0.4-0.1-0.7c0-0.3,0.1-0.4,0.1-0.3&#10;&#9;&#9;c0.1,0.1,0.1,0,0.1-0.2c0-0.2-0.1-0.5-0.1-0.7c-0.1-0.1-0.1-0.4-0.1-0.7c0-0.3,0.1-0.4,0.1-0.3c0.1,0.1,0.1,0,0.1-0.2&#10;&#9;&#9;c0-0.2-0.1-0.5-0.1-0.7c-0.1-0.1-0.1-0.4-0.1-0.7c0-0.3,0.1-0.4,0.1-0.3c0.1,0.1,0.1,0,0.1-0.2c0-0.2-0.1-0.5-0.1-0.7&#10;&#9;&#9;c-0.1-0.1-0.1-0.4-0.1-0.7c0-0.3,0.1-0.4,0.1-0.3c0.1,0.1,0.1,0,0.1-0.2c0-0.2-0.1-0.5-0.1-0.7c-0.1-0.1-0.1-0.4-0.1-0.7&#10;&#9;&#9;c0-0.3,0.1-0.4,0.1-0.3c0.1,0.1,0.1,0,0.1-0.2c0-0.2-0.1-0.5-0.1-0.7c-0.1-0.1-0.1-0.4-0.1-0.7c0-0.3,0.1-0.4,0.1-0.3&#10;&#9;&#9;c0.1,0.1,0.1,0,0.1-0.2c0-0.2-0.1-0.5-0.1-0.7c-0.1-0.1-0.1-0.4-0.1-0.7c0-0.3,0.1-0.4,0.1-0.3c0.1,0.1,0.1,0,0.1-0.2&#10;&#9;&#9;c0-0.2-0.1-0.5-0.1-0.7c-0.1-0.1-0.1-0.4-0.1-0.7c0-0.3,0.1-0.4,0.1-0.3c0.1,0.1,0.1,0,0.1-0.2c0-0.2-0.1-0.5-0.1-0.7&#10;&#9;&#9;c-0.1-0.1-0.1-0.5-0.1-0.8c0-0.3-0.2-0.5-0.5-0.5h0c-0.3,0-0.5-0.2-0.5-0.5c0-0.3-0.2-0.5-0.5-0.5h-1.5c-0.3,0-0.5,0.2-0.5,0.5&#10;&#9;&#9;c0,0.3-0.2,0.5-0.5,0.5c-0.3,0-0.5,0.2-0.5,0.5c0,0.3-0.1,0.6-0.1,0.8c-0.1,0.1-0.1,0.4-0.1,0.7c0,0.2,0.1,0.3,0.1,0.2&#10;&#9;&#9;c0.1-0.1,0.1,0,0.1,0.3c0,0.3-0.1,0.6-0.1,0.7c-0.1,0.1-0.1,0.4-0.1,0.7c0,0.2,0.1,0.3,0.1,0.2c0.1-0.1,0.1,0,0.1,0.3&#10;&#9;&#9;c0,0.3-0.1,0.6-0.1,0.7c-0.1,0.1-0.1,0.4-0.1,0.7c0,0.2,0.1,0.3,0.1,0.2c0.1-0.1,0.1,0,0.1,0.3c0,0.3-0.1,0.6-0.1,0.7&#10;&#9;&#9;c-0.1,0.1-0.1,0.4-0.1,0.7c0,0.2,0.1,0.3,0.1,0.2c0.1-0.1,0.1,0,0.1,0.3c0,0.3-0.1,0.6-0.1,0.7c-0.1,0.1-0.1,0.4-0.1,0.7&#10;&#9;&#9;c0,0.2,0.1,0.3,0.1,0.2c0.1-0.1,0.1,0,0.1,0.3v0.5c0,0-0.1,0.1-0.1,0.2c-0.1,0.1-0.1,0.4-0.1,0.7c0,0.2,0.1,0.3,0.1,0.2&#10;&#9;&#9;c0.1-0.1,0.1,0,0.1,0.3c0,0.3-0.1,0.6-0.1,0.7c-0.1,0.1-0.1,0.4-0.1,0.7c0,0.2,0.1,0.3,0.1,0.2c0.1-0.1,0.1,0,0.1,0.3&#10;&#9;&#9;c0,0.3-0.1,0.6-0.1,0.7c-0.1,0.1-0.1,0.4-0.1,0.7c0,0.2,0.1,0.3,0.1,0.2c0.1-0.1,0.1,0,0.1,0.3c0,0.3-0.1,0.6-0.1,0.7&#10;&#9;&#9;c-0.1,0.1-0.1,0.4-0.1,0.7c0,0.2,0.1,0.3,0.1,0.2c0.1-0.1,0.1,0.2,0.1,0.6c0,0.4-0.2,0.5-0.4,0.1l-0.2-0.4&#10;&#9;&#9;c-0.2-0.4-0.5-0.7-0.6-0.7c-0.1,0-0.3-0.4-0.3-1V124c0-0.5-0.1-0.9-0.2-0.9c-0.1,0-0.2-0.1-0.2-0.2c0-0.1-0.2-0.2-0.5-0.2h0&#10;&#9;&#9;c-0.3,0-0.5,0.1-0.5,0.2c0,0.1-0.2,0.2-0.5,0.2h0c-0.3,0-0.5-0.1-0.5-0.2c0-0.1-0.2-0.2-0.5-0.2h-1.1c-0.3,0-0.5,0.1-0.5,0.2&#10;&#9;&#9;c0,0.1-0.1,0.2-0.2,0.2c-0.1,0-0.2,0.4-0.2,0.9l0,23.6c0,0.5-0.1,0.6-0.3,0.2l-0.3-0.6c-0.2-0.4-0.3-1.2-0.3-1.7l0-28.5&#10;&#9;&#9;c0-0.5-0.1-0.9-0.2-0.9s-0.2-0.2-0.2-0.4c0-0.2,0-0.4-0.1-0.4c0,0-0.1-0.1-0.1-0.2c0-0.1,0-0.2-0.1-0.2c0,0-0.1,0.1-0.1,0.2&#10;&#9;&#9;c0,0.1,0,0.2-0.1,0.2c-0.1,0-0.1,0-0.1,0c0,0-0.2,0-0.4,0c-0.2,0-0.4,0-0.4,0c0,0,0,0-0.1,0c-0.1,0-0.1-0.1-0.1-0.2&#10;&#9;&#9;c0-0.1-0.1-0.2-0.1-0.2c-0.1,0-0.1,0.1-0.1,0.2c0,0.1-0.1,0.2-0.2,0.2c-0.1,0-0.2,0.2-0.2,0.4c0,0.2-0.1,0.4-0.1,0.4&#10;&#9;&#9;c-0.1,0-0.1,0-0.1-0.1c0,0-0.1-0.1-0.1-0.1c-0.1,0-0.1,0-0.1,0.1c0,0-0.2,0.1-0.4,0.1c-0.2,0-0.4,0-0.4-0.1c0,0,0-0.1-0.1-0.1&#10;&#9;&#9;c-0.1,0-0.1,0-0.1,0.1c0,0-0.1,0.1-0.2,0.1c-0.1,0-0.2-0.2-0.2-0.4c0-0.2-0.1-0.4-0.2-0.4c-0.1,0-0.2-0.1-0.2-0.1&#10;&#9;&#9;c0-0.1,0-0.1-0.1-0.1c0,0-0.1,0.1-0.1,0.1c0,0.1-0.1,0.1-0.2,0.1c-0.1,0-0.2-0.1-0.2-0.3c0-0.1,0-0.3-0.1-0.3c0,0-0.1,0.1-0.1,0.3&#10;&#9;&#9;c0,0.1-0.1,0.3-0.1,0.3c-0.1,0-0.1,0.2-0.1,0.4c0,0.2-0.1,0.4-0.2,0.4c-0.1,0-0.2,0.4-0.2,1v19c0,0.5-0.2,0.9-0.5,0.9h-0.5&#10;&#9;&#9;c-0.3,0-0.5-0.4-0.5-0.9v-8c0-0.5-0.2-1-0.5-1c-0.2,0-0.5-0.1-0.5-0.2c0-0.1-0.2-0.2-0.5-0.2h-1.6c-0.3,0-0.5,0.1-0.5,0.2&#10;&#9;&#9;c0,0.1-0.2,0.2-0.4,0.2c-0.2,0-0.4,0.4-0.4,1v13.2" style="fill-rule: evenodd; clip-rule: evenodd; fill: rgb(204, 204, 204); opacity: 1;" transform="matrix(1, 0, 0, 1, 0, 0)"/></svg>